<?xml version="1.0" encoding="UTF-8"?>
<svg width="32" height="32" viewBox="0 0 32 32" xmlns="http://www.w3.org/2000/svg">
  <!-- Cactus saguaro m치s grande -->
  <g>
    <!-- Sombra del cactus -->
    <ellipse cx="17" cy="29" rx="8" ry="2" fill="#000000" opacity="0.3"/>
    
    <!-- Tronco principal m치s ancho -->
    <rect x="11" y="6" width="10" height="24" rx="5" fill="#5a9a4a" stroke="#2a5a1a" stroke-width="1.2"/>
    
    <!-- Brazo izquierdo conectado m치s grande -->
    <path d="M 11,14 L 8,14 Q 4,14 4,18 L 4,26 Q 4,28 6,28" 
          fill="#4a8a3a" stroke="#2a5a1a" stroke-width="1.2"/>
    
    <!-- Brazo derecho conectado m치s grande -->
    <path d="M 21,12 L 24,12 Q 28,12 28,16 L 28,26 Q 28,28 26,28" 
          fill="#4a8a3a" stroke="#2a5a1a" stroke-width="1.2"/>
    
    <!-- Espinas/detalles en el tronco -->
    <line x1="14" y1="10" x2="12" y2="10" stroke="#1a3a0a" stroke-width="2"/>
    <line x1="18" y1="13" x2="20" y2="13" stroke="#1a3a0a" stroke-width="2"/>
    <line x1="14" y1="16" x2="12" y2="16" stroke="#1a3a0a" stroke-width="2"/>
    <line x1="18" y1="19" x2="20" y2="19" stroke="#1a3a0a" stroke-width="2"/>
    <line x1="14" y1="22" x2="12" y2="22" stroke="#1a3a0a" stroke-width="2"/>
    <line x1="18" y1="25" x2="20" y2="25" stroke="#1a3a0a" stroke-width="2"/>
    <line x1="14" y1="28" x2="12" y2="28" stroke="#1a3a0a" stroke-width="2"/>
    
    <!-- Highlights del tronco -->
    <ellipse cx="14" cy="18" rx="2" ry="8" fill="#6aba5a" opacity="0.5"/>
  </g>
</svg>
